<svg width="25" height="24" viewBox="0 0 25 24" fill="none" xmlns="http://www.w3.org/2000/svg">
<g clip-path="url(#clip0_7150_204048)">
<path d="M23.9491 19.4961V19.2137C23.9211 19.0272 23.8816 18.8425 23.831 18.6608C23.7723 18.4742 23.6972 18.2931 23.6068 18.1196C23.5335 17.9326 23.4385 17.7549 23.3235 17.5902L15.8754 7.06078V2.16666H17.6223C17.9104 2.16666 18.1866 2.05263 18.3902 1.84965C18.5939 1.64666 18.7083 1.37136 18.7083 1.08431C18.7083 0.797248 18.5939 0.521947 18.3902 0.318967C18.1866 0.115986 17.9104 0.00195313 17.6223 0.00195312L6.32631 0.00195313C6.03831 0.00195313 5.7621 0.115986 5.55844 0.318967C5.35479 0.521947 5.24038 0.797248 5.24038 1.08431C5.24038 1.37136 5.35479 1.64666 5.55844 1.84965C5.7621 2.05263 6.03831 2.16666 6.32631 2.16666H8.07324V7.06078L0.636983 17.5784C0.530903 17.7525 0.436275 17.9333 0.353697 18.1196C0.276487 18.296 0.20949 18.4767 0.153036 18.6608C0.0499652 19.0204 -0.00169268 19.3927 -0.000411002 19.7667C-0.00507133 19.845 -0.00507133 19.9236 -0.000411002 20.002C0.0247623 20.4543 0.124458 20.8995 0.294679 21.3196C0.456778 21.749 0.692412 22.147 0.99109 22.4961C1.10062 22.6366 1.22313 22.7666 1.357 22.8843C1.49037 23.0079 1.63237 23.1219 1.78193 23.2255L2.25407 23.5196L2.77343 23.7431C3.23595 23.9062 3.72288 23.9897 4.21347 23.9902H19.7234C20.2177 23.9886 20.7084 23.9051 21.1752 23.7431L21.6828 23.5196C22.1693 23.2625 22.602 22.9151 22.9576 22.4961C23.3609 22.0112 23.6548 21.4454 23.8192 20.8372C23.8862 20.5709 23.9296 20.2993 23.9491 20.0255V19.4843V19.4961ZM21.6474 20.002C21.6474 20.0725 21.6474 20.1431 21.5884 20.2137V20.3078L21.5175 20.4725C21.3945 20.7574 21.2137 21.0137 20.9864 21.2255L20.8683 21.3196C20.8103 21.3728 20.747 21.4201 20.6795 21.4608L20.5024 21.5667L20.3608 21.6372L20.0775 21.7431C19.8689 21.7951 19.655 21.8227 19.4401 21.8255H4.53217H4.20167C3.90081 21.7808 3.6119 21.6768 3.35181 21.5196L3.15115 21.3902C3.05909 21.318 2.97231 21.2394 2.89147 21.1549C2.74596 21.0001 2.6228 20.8259 2.52556 20.6372C2.5209 20.5903 2.5209 20.543 2.52556 20.4961C2.41597 20.2549 2.35194 19.9957 2.3367 19.7314C2.31086 19.2658 2.43493 18.8041 2.69081 18.4137L10.2333 7.88431V2.16666H13.7154V7.88431L21.3287 18.3784C21.4078 18.491 21.4713 18.6137 21.5175 18.7431C21.622 18.9973 21.678 19.2685 21.6828 19.5431C21.6826 19.6967 21.6707 19.8501 21.6474 20.002Z" fill="#444746"/>
<path d="M4.31914 18.756C4.22564 18.9025 4.17356 19.0715 4.16839 19.245C4.16323 19.4186 4.20516 19.5904 4.28977 19.7422C4.37438 19.894 4.49854 20.0202 4.64913 20.1075C4.79972 20.1948 4.97117 20.24 5.14539 20.2383H18.8139C18.9882 20.24 19.1596 20.1948 19.3102 20.1075C19.4608 20.0202 19.585 19.894 19.6696 19.7422C19.7542 19.5904 19.7961 19.4186 19.7909 19.245C19.7858 19.0715 19.7337 18.9025 19.6402 18.756L14.7889 12.2266H9.15861L4.31914 18.756Z" fill="#444746"/>
</g>
<defs>
<clipPath id="clip0_7150_204048">
<rect width="25" height="24" fill="white"/>
</clipPath>
</defs>
</svg>
